<?xml version="1.0" standalone="no"?>
<!DOCTYPE svg PUBLIC "-//W3C//DTD SVG 20010904//EN"
 "http://www.w3.org/TR/2001/REC-SVG-20010904/DTD/svg10.dtd">
<svg version="1.0" xmlns="http://www.w3.org/2000/svg"
 width="663.000000pt" height="663.000000pt" viewBox="0 0 663.000000 663.000000"
 preserveAspectRatio="xMidYMid meet">
<metadata>
Created by potrace 1.14, written by Peter Selinger 2001-2017
</metadata>
<g transform="translate(0.000000,663.000000) scale(0.100000,-0.100000)"
fill="#000000" stroke="none">
<path d="M3090 5918 c-364 -16 -746 -125 -1071 -303 -244 -134 -426 -270 -615
-462 -307 -309 -507 -644 -647 -1078 -138 -429 -143 -1018 -11 -1471 33 -115
115 -325 170 -435 252 -506 699 -950 1193 -1186 240 -114 378 -160 637 -212
189 -38 317 -51 508 -51 570 0 1115 185 1581 539 136 103 382 350 487 491 152
203 247 369 341 600 93 229 140 417 172 688 41 353 -2 776 -113 1102 -179 523
-497 958 -938 1283 -215 158 -447 278 -709 366 -333 112 -602 147 -985 129z"/>
</g>
</svg>
